####
#
# OBJ File Generated by Meshlab
#
####
# Object key3.obj
#
# Vertices: 248
# Faces: 68
#
####
mtllib ./key3.obj.mtl

vn -0.294251 -0.872827 -0.389345
v 0.362437 -0.012636 0.763621 0.752941 0.752941 0.752941
vn 0.799239 -0.462198 -0.384173
v 1.761870 0.546452 0.767114 0.752941 0.752941 0.752941
vn -0.586978 -0.408655 -0.698897
v -0.587805 2.954044 -0.172966 0.752941 0.752941 0.752941
vn 0.730268 0.065453 -0.680018
v 0.087205 3.198475 -0.164234 0.752941 0.752941 0.752941
vn 0.249757 0.120942 -0.960726
v 0.729323 1.556766 0.367315 0.752941 0.752941 0.752941
vn 0.363063 0.589155 -0.721860
v 1.015941 1.698475 0.360436 0.752941 0.752941 0.752941
vn 0.387732 0.579344 -0.716955
v 1.508676 1.230324 0.547320 0.752941 0.752941 0.752941
vn 0.799273 -0.465836 -0.379684
v 1.178637 1.294109 0.491878 0.752941 0.752941 0.752941
vn 0.475975 -0.405441 -0.780426
v 0.957573 1.214703 0.488839 0.752941 0.752941 0.752941
vn 0.260901 0.126745 -0.957009
v 1.033653 1.017229 0.552645 0.752941 0.752941 0.752941
vn -0.419567 -0.566014 0.709642
v 0.331200 0.063843 1.037563 0.752941 0.752941 0.752941
vn 0.672900 -0.152889 0.723761
v 1.730632 0.622930 1.041055 0.752941 0.752941 0.752941
vn 0.262421 0.886138 0.381961
v 1.477438 1.306803 0.821262 0.752941 0.752941 0.752941
vn 0.062017 0.613668 0.787125
v 1.002415 1.093707 0.826586 0.752941 0.752941 0.752941
vn 0.277822 0.079702 0.957321
v 0.926335 1.291181 0.762780 0.752941 0.752941 0.752941
vn 0.673660 -0.158304 0.721888
v 1.147399 1.370587 0.765820 0.752941 0.752941 0.752941
vn 0.237887 0.895617 0.375871
v 0.984703 1.774954 0.634378 0.752941 0.752941 0.752941
vn 0.050021 0.609944 0.790864
v 0.698085 1.633244 0.641257 0.752941 0.752941 0.752941
vn 0.574522 0.446760 0.685806
v 0.055967 3.274954 0.109707 0.752941 0.752941 0.752941
vn -0.742941 -0.026820 0.668819
v -0.619043 3.030522 0.100976 0.752941 0.752941 0.752941
vn -0.268741 -0.881852 -0.387448
v -0.871274 2.696562 -0.268120 0.752941 0.752941 0.752941
vn 0.816483 -0.428845 -0.386584
v 0.519954 3.252182 -0.264595 0.752941 0.752941 0.752941
vn -0.394796 -0.573232 0.718012
v -0.930673 2.841988 0.252788 0.752941 0.752941 0.752941
vn 0.691177 -0.122060 0.712303
v 0.460555 3.397608 0.256313 0.752941 0.752941 0.752941
vn -0.743860 -0.080571 0.663461
v -1.176356 3.459634 0.052340 0.752941 0.752941 0.752941
vn 0.534153 0.488467 0.689986
v 0.203470 3.930161 0.078321 0.752941 0.752941 0.752941
vn -0.592135 -0.452037 -0.667112
v -1.116957 3.314208 -0.468568 0.752941 0.752941 0.752941
vn 0.694168 0.096705 -0.713288
v 0.262869 3.784735 -0.442587 0.752941 0.752941 0.752941
vn -0.543210 -0.452294 -0.707357
v -0.100758 4.907228 -0.941332 0.752941 0.752941 0.752941
vn -0.455528 -0.602647 -0.655218
v -0.183478 5.048654 -0.990247 0.752941 0.752941 0.752941
vn -0.330300 -0.722864 -0.606934
v -0.303335 5.162971 -1.035829 0.752941 0.752941 0.752941
vn -0.178124 -0.804854 -0.566112
v -0.452159 5.242389 -1.074972 0.752941 0.752941 0.752941
vn -0.010761 -0.844543 -0.535380
v -0.619810 5.281495 -1.105006 0.752941 0.752941 0.752941
vn 0.160455 -0.841184 -0.516395
v -0.794861 5.277625 -1.123887 0.752941 0.752941 0.752941
vn 0.325258 -0.796319 -0.509984
v -0.965384 5.231042 -1.130327 0.752941 0.752941 0.752941
vn 0.474342 -0.712978 -0.516394
v -1.119757 5.144921 -1.123887 0.752941 0.752941 0.752941
vn 0.598947 -0.595508 -0.535381
v -1.247461 5.025131 -1.105006 0.752941 0.752941 0.752941
vn 0.690669 -0.449995 -0.566110
v -1.339793 4.879835 -1.074971 0.752941 0.752941 0.752941
vn 0.741927 -0.284910 -0.606936
v -1.390459 4.718935 -1.035829 0.752941 0.752941 0.752941
vn 0.747182 -0.111401 -0.655217
v -1.396008 4.553396 -0.990247 0.752941 0.752941 0.752941
vn 0.704527 0.057340 -0.707357
v -1.356062 4.394499 -0.941332 0.752941 0.752941 0.752941
vn 0.616813 0.207778 -0.759190
v -1.273342 4.253074 -0.892416 0.752941 0.752941 0.752941
vn 0.491492 0.328216 -0.806665
v -1.153486 4.138757 -0.846835 0.752941 0.752941 0.752941
vn 0.339197 0.410508 -0.846421
v -1.004661 4.059339 -0.807692 0.752941 0.752941 0.752941
vn 0.171712 0.450484 -0.876116
v -0.837011 4.020233 -0.777658 0.752941 0.752941 0.752941
vn 0.000416 0.447331 -0.894368
v -0.661959 4.024103 -0.758777 0.752941 0.752941 0.752941
vn -0.164418 0.402541 -0.900515
v -0.491437 4.070686 -0.752337 0.752941 0.752941 0.752941
vn -0.313474 0.319123 -0.894368
v -0.337063 4.156807 -0.758777 0.752941 0.752941 0.752941
vn -0.437993 0.201448 -0.876117
v -0.209359 4.276597 -0.777658 0.752941 0.752941 0.752941
vn -0.529600 0.055649 -0.846420
v -0.117028 4.421893 -0.807692 0.752941 0.752941 0.752941
vn -0.580732 -0.109736 -0.806665
v -0.066361 4.582793 -0.846835 0.752941 0.752941 0.752941
vn -0.585896 -0.283468 -0.759192
v -0.060812 4.748331 -0.892417 0.752941 0.752941 0.752941
vn -0.704529 -0.057340 0.707355
v -0.190241 5.126306 -0.156605 0.752941 0.752941 0.752941
vn -0.616814 -0.207775 0.759190
v -0.272961 5.267732 -0.205521 0.752941 0.752941 0.752941
vn -0.491494 -0.328217 0.806665
v -0.392817 5.382049 -0.251103 0.752941 0.752941 0.752941
vn -0.339197 -0.410508 0.846421
v -0.541641 5.461467 -0.290245 0.752941 0.752941 0.752941
vn -0.171712 -0.450484 0.876116
v -0.709292 5.500573 -0.320280 0.752941 0.752941 0.752941
vn -0.000414 -0.447330 0.894369
v -0.884343 5.496703 -0.339160 0.752941 0.752941 0.752941
vn 0.164418 -0.402541 0.900515
v -1.054866 5.450120 -0.345600 0.752941 0.752941 0.752941
vn 0.313474 -0.319123 0.894368
v -1.209240 5.363999 -0.339160 0.752941 0.752941 0.752941
vn 0.437993 -0.201448 0.876117
v -1.336944 5.244209 -0.320279 0.752941 0.752941 0.752941
vn 0.529598 -0.055651 0.846422
v -1.429275 5.098913 -0.290245 0.752941 0.752941 0.752941
vn 0.580732 0.109733 0.806665
v -1.479942 4.938013 -0.251103 0.752941 0.752941 0.752941
vn 0.585895 0.283472 0.759191
v -1.485491 4.772474 -0.205521 0.752941 0.752941 0.752941
vn 0.543209 0.452298 0.707355
v -1.445544 4.613578 -0.156605 0.752941 0.752941 0.752941
vn 0.455529 0.602647 0.655217
v -1.362824 4.472152 -0.107690 0.752941 0.752941 0.752941
vn 0.330301 0.722862 0.606936
v -1.242968 4.357835 -0.062108 0.752941 0.752941 0.752941
vn 0.178125 0.804855 0.566110
v -1.094144 4.278417 -0.022966 0.752941 0.752941 0.752941
vn 0.010759 0.844542 0.535381
v -0.926493 4.239311 0.007069 0.752941 0.752941 0.752941
vn -0.160454 0.841184 0.516395
v -0.751442 4.243181 0.025950 0.752941 0.752941 0.752941
vn -0.325257 0.796319 0.509984
v -0.580919 4.289764 0.032390 0.752941 0.752941 0.752941
vn -0.474342 0.712977 0.516394
v -0.426546 4.375885 0.025950 0.752941 0.752941 0.752941
vn -0.598947 0.595508 0.535381
v -0.298842 4.495675 0.007069 0.752941 0.752941 0.752941
vn -0.690669 0.449995 0.566110
v -0.206510 4.640971 -0.022966 0.752941 0.752941 0.752941
vn -0.741926 0.284911 0.606936
v -0.155844 4.801871 -0.062108 0.752941 0.752941 0.752941
vn -0.747181 0.111401 0.655217
v -0.150295 4.967410 -0.107690 0.752941 0.752941 0.752941
vn 0.608285 0.459318 0.647314
v 0.669361 5.477410 -0.156605 0.752941 0.752941 0.752941
vn 0.504652 0.632511 0.587586
v 0.482392 5.790391 -0.265302 0.752941 0.752941 0.752941
vn 0.357863 0.765391 0.534893
v 0.206811 6.040646 -0.366592 0.752941 0.752941 0.752941
vn 0.186156 0.849767 0.493196
v -0.138601 6.211118 -0.453572 0.752941 0.752941 0.752941
vn 0.005883 0.885884 0.463870
v -0.530307 6.290192 -0.520314 0.752941 0.752941 0.752941
vn -0.171629 0.878066 0.446702
v -0.941610 6.272478 -0.562269 0.752941 0.752941 0.752941
vn -0.339356 0.830838 0.441073
v -1.344483 6.159183 -0.576580 0.752941 0.752941 0.752941
vn -0.492184 0.747136 0.446703
v -1.711469 5.958029 -0.562269 0.752941 0.752941 0.752941
vn -0.624409 0.628442 0.463869
v -2.017560 5.682724 -0.520314 0.752941 0.752941 0.752941
vn -0.727846 0.476442 0.493196
v -2.241895 5.352028 -0.453572 0.752941 0.752941 0.752941
vn -0.791381 0.295983 0.534893
v -2.369187 4.988480 -0.366592 0.752941 0.752941 0.752941
vn -0.803165 0.098333 0.587585
v -2.390760 4.616853 -0.265303 0.752941 0.752941 0.752941
vn -0.755912 -0.097886 0.647315
v -2.305146 4.262474 -0.156605 0.752941 0.752941 0.752941
vn -0.652370 -0.270855 0.707849
v -2.118177 3.949492 -0.047908 0.752941 0.752941 0.752941
vn -0.505821 -0.403150 0.762637
v -1.842597 3.699238 0.053382 0.752941 0.752941 0.752941
vn -0.334414 -0.486788 0.806973
v -1.497184 3.528766 0.140362 0.752941 0.752941 0.752941
vn -0.154415 -0.522234 0.838706
v -1.105479 3.449692 0.207103 0.752941 0.752941 0.752941
vn 0.022910 -0.513960 0.857508
v -0.694175 3.467406 0.249059 0.752941 0.752941 0.752941
vn 0.190572 -0.466572 0.863709
v -0.291302 3.580701 0.263369 0.752941 0.752941 0.752941
vn 0.343465 -0.383030 0.857508
v 0.075684 3.781855 0.249059 0.752941 0.752941 0.752941
vn 0.475876 -0.264793 0.838706
v 0.381775 4.057160 0.207103 0.752941 0.752941 0.752941
vn 0.579588 -0.113465 0.806972
v 0.606110 4.387855 0.140362 0.752941 0.752941 0.752941
vn 0.643424 0.066259 0.762637
v 0.733402 4.751404 0.053382 0.752941 0.752941 0.752941
vn 0.655446 0.263323 0.707850
v 0.754975 5.123031 -0.047908 0.752941 0.752941 0.752941
vn 0.755911 0.097887 -0.647315
v 0.758843 5.258332 -0.941332 0.752941 0.752941 0.752941
vn 0.652370 0.270855 -0.707849
v 0.571875 5.571313 -1.050029 0.752941 0.752941 0.752941
vn 0.505821 0.403149 -0.762637
v 0.296294 5.821567 -1.151319 0.752941 0.752941 0.752941
vn 0.334416 0.486788 -0.806972
v -0.049119 5.992040 -1.238299 0.752941 0.752941 0.752941
vn 0.154415 0.522233 -0.838706
v -0.440824 6.071114 -1.305041 0.752941 0.752941 0.752941
vn -0.022911 0.513961 -0.857508
v -0.852128 6.053400 -1.346996 0.752941 0.752941 0.752941
vn -0.190571 0.466572 -0.863709
v -1.255001 5.940105 -1.361306 0.752941 0.752941 0.752941
vn -0.343466 0.383030 -0.857507
v -1.621987 5.738951 -1.346996 0.752941 0.752941 0.752941
vn -0.475874 0.264791 -0.838707
v -1.928077 5.463645 -1.305041 0.752941 0.752941 0.752941
vn -0.579588 0.113464 -0.806972
v -2.152413 5.132950 -1.238299 0.752941 0.752941 0.752941
vn -0.643424 -0.066259 -0.762637
v -2.279705 4.769401 -1.151319 0.752941 0.752941 0.752941
vn -0.655447 -0.263324 -0.707849
v -2.301278 4.397775 -1.050029 0.752941 0.752941 0.752941
vn -0.608285 -0.459317 -0.647315
v -2.215663 4.043396 -0.941332 0.752941 0.752941 0.752941
vn -0.504652 -0.632511 -0.587585
v -2.028695 3.730414 -0.832635 0.752941 0.752941 0.752941
vn -0.357863 -0.765391 -0.534893
v -1.753114 3.480160 -0.731345 0.752941 0.752941 0.752941
vn -0.186156 -0.849767 -0.493196
v -1.407701 3.309687 -0.644365 0.752941 0.752941 0.752941
vn -0.005882 -0.885884 -0.463869
v -1.015996 3.230614 -0.577623 0.752941 0.752941 0.752941
vn 0.171628 -0.878066 -0.446702
v -0.604693 3.248328 -0.535668 0.752941 0.752941 0.752941
vn 0.339356 -0.830838 -0.441072
v -0.201820 3.361622 -0.521357 0.752941 0.752941 0.752941
vn 0.492184 -0.747136 -0.446702
v 0.165166 3.562777 -0.535668 0.752941 0.752941 0.752941
vn 0.624408 -0.628442 -0.463869
v 0.471257 3.838082 -0.577623 0.752941 0.752941 0.752941
vn 0.727846 -0.476443 -0.493196
v 0.695592 4.168777 -0.644365 0.752941 0.752941 0.752941
vn 0.791381 -0.295983 -0.534893
v 0.822884 4.532326 -0.731345 0.752941 0.752941 0.752941
vn 0.803165 -0.098333 -0.587585
v 0.844458 4.903953 -0.832635 0.752941 0.752941 0.752941
vn -0.294251 -0.872827 -0.389345
v 0.362437 -0.012636 0.763621 0.752941 0.752941 0.752941
vn 0.799239 -0.462198 -0.384173
v 1.761870 0.546452 0.767114 0.752941 0.752941 0.752941
vn -0.586978 -0.408655 -0.698897
v -0.587805 2.954044 -0.172966 0.752941 0.752941 0.752941
vn 0.730268 0.065453 -0.680018
v 0.087205 3.198475 -0.164234 0.752941 0.752941 0.752941
vn 0.249757 0.120942 -0.960726
v 0.729323 1.556766 0.367315 0.752941 0.752941 0.752941
vn 0.363063 0.589155 -0.721860
v 1.015941 1.698475 0.360436 0.752941 0.752941 0.752941
vn 0.387732 0.579344 -0.716955
v 1.508676 1.230324 0.547320 0.752941 0.752941 0.752941
vn 0.799273 -0.465836 -0.379684
v 1.178637 1.294109 0.491878 0.752941 0.752941 0.752941
vn 0.475975 -0.405441 -0.780426
v 0.957573 1.214703 0.488839 0.752941 0.752941 0.752941
vn 0.260901 0.126745 -0.957009
v 1.033653 1.017229 0.552645 0.752941 0.752941 0.752941
vn -0.419567 -0.566014 0.709642
v 0.331200 0.063843 1.037563 0.752941 0.752941 0.752941
vn 0.672900 -0.152889 0.723761
v 1.730632 0.622930 1.041055 0.752941 0.752941 0.752941
vn 0.262421 0.886138 0.381961
v 1.477438 1.306803 0.821262 0.752941 0.752941 0.752941
vn 0.062017 0.613668 0.787125
v 1.002415 1.093707 0.826586 0.752941 0.752941 0.752941
vn 0.277822 0.079702 0.957321
v 0.926335 1.291181 0.762780 0.752941 0.752941 0.752941
vn 0.673660 -0.158304 0.721888
v 1.147399 1.370587 0.765820 0.752941 0.752941 0.752941
vn 0.237887 0.895617 0.375871
v 0.984703 1.774954 0.634378 0.752941 0.752941 0.752941
vn 0.050021 0.609944 0.790864
v 0.698085 1.633244 0.641257 0.752941 0.752941 0.752941
vn 0.574522 0.446760 0.685806
v 0.055967 3.274954 0.109707 0.752941 0.752941 0.752941
vn -0.742941 -0.026820 0.668819
v -0.619043 3.030522 0.100976 0.752941 0.752941 0.752941
vn -0.268741 -0.881852 -0.387448
v -0.871274 2.696562 -0.268120 0.752941 0.752941 0.752941
vn 0.816483 -0.428845 -0.386584
v 0.519954 3.252182 -0.264595 0.752941 0.752941 0.752941
vn -0.394796 -0.573232 0.718012
v -0.930673 2.841988 0.252788 0.752941 0.752941 0.752941
vn 0.691177 -0.122060 0.712303
v 0.460555 3.397608 0.256313 0.752941 0.752941 0.752941
vn -0.743860 -0.080571 0.663461
v -1.176356 3.459634 0.052340 0.752941 0.752941 0.752941
vn 0.534153 0.488467 0.689986
v 0.203470 3.930161 0.078321 0.752941 0.752941 0.752941
vn -0.592135 -0.452037 -0.667112
v -1.116957 3.314208 -0.468568 0.752941 0.752941 0.752941
vn 0.694168 0.096705 -0.713288
v 0.262869 3.784735 -0.442587 0.752941 0.752941 0.752941
vn -0.543210 -0.452294 -0.707357
v -0.100758 4.907228 -0.941332 0.752941 0.752941 0.752941
vn -0.455528 -0.602647 -0.655218
v -0.183478 5.048654 -0.990247 0.752941 0.752941 0.752941
vn -0.330300 -0.722864 -0.606934
v -0.303335 5.162971 -1.035829 0.752941 0.752941 0.752941
vn -0.178124 -0.804854 -0.566112
v -0.452159 5.242389 -1.074972 0.752941 0.752941 0.752941
vn -0.010761 -0.844543 -0.535380
v -0.619810 5.281495 -1.105006 0.752941 0.752941 0.752941
vn 0.160455 -0.841184 -0.516395
v -0.794861 5.277625 -1.123887 0.752941 0.752941 0.752941
vn 0.325258 -0.796319 -0.509984
v -0.965384 5.231042 -1.130327 0.752941 0.752941 0.752941
vn 0.474342 -0.712978 -0.516394
v -1.119757 5.144921 -1.123887 0.752941 0.752941 0.752941
vn 0.598947 -0.595508 -0.535381
v -1.247461 5.025131 -1.105006 0.752941 0.752941 0.752941
vn 0.690669 -0.449995 -0.566110
v -1.339793 4.879835 -1.074971 0.752941 0.752941 0.752941
vn 0.741927 -0.284910 -0.606936
v -1.390459 4.718935 -1.035829 0.752941 0.752941 0.752941
vn 0.747182 -0.111401 -0.655217
v -1.396008 4.553396 -0.990247 0.752941 0.752941 0.752941
vn 0.704527 0.057340 -0.707357
v -1.356062 4.394499 -0.941332 0.752941 0.752941 0.752941
vn 0.616813 0.207778 -0.759190
v -1.273342 4.253074 -0.892416 0.752941 0.752941 0.752941
vn 0.491492 0.328216 -0.806665
v -1.153486 4.138757 -0.846835 0.752941 0.752941 0.752941
vn 0.339197 0.410508 -0.846421
v -1.004661 4.059339 -0.807692 0.752941 0.752941 0.752941
vn 0.171712 0.450484 -0.876116
v -0.837011 4.020233 -0.777658 0.752941 0.752941 0.752941
vn 0.000416 0.447331 -0.894368
v -0.661959 4.024103 -0.758777 0.752941 0.752941 0.752941
vn -0.164418 0.402541 -0.900515
v -0.491437 4.070686 -0.752337 0.752941 0.752941 0.752941
vn -0.313474 0.319123 -0.894368
v -0.337063 4.156807 -0.758777 0.752941 0.752941 0.752941
vn -0.437993 0.201448 -0.876117
v -0.209359 4.276597 -0.777658 0.752941 0.752941 0.752941
vn -0.529600 0.055649 -0.846420
v -0.117028 4.421893 -0.807692 0.752941 0.752941 0.752941
vn -0.580732 -0.109736 -0.806665
v -0.066361 4.582793 -0.846835 0.752941 0.752941 0.752941
vn -0.585896 -0.283468 -0.759192
v -0.060812 4.748331 -0.892417 0.752941 0.752941 0.752941
vn -0.704529 -0.057340 0.707355
v -0.190241 5.126306 -0.156605 0.752941 0.752941 0.752941
vn -0.616814 -0.207775 0.759190
v -0.272961 5.267732 -0.205521 0.752941 0.752941 0.752941
vn -0.491494 -0.328217 0.806665
v -0.392817 5.382049 -0.251103 0.752941 0.752941 0.752941
vn -0.339197 -0.410508 0.846421
v -0.541641 5.461467 -0.290245 0.752941 0.752941 0.752941
vn -0.171712 -0.450484 0.876116
v -0.709292 5.500573 -0.320280 0.752941 0.752941 0.752941
vn -0.000414 -0.447330 0.894369
v -0.884343 5.496703 -0.339160 0.752941 0.752941 0.752941
vn 0.164418 -0.402541 0.900515
v -1.054866 5.450120 -0.345600 0.752941 0.752941 0.752941
vn 0.313474 -0.319123 0.894368
v -1.209240 5.363999 -0.339160 0.752941 0.752941 0.752941
vn 0.437993 -0.201448 0.876117
v -1.336944 5.244209 -0.320279 0.752941 0.752941 0.752941
vn 0.529598 -0.055651 0.846422
v -1.429275 5.098913 -0.290245 0.752941 0.752941 0.752941
vn 0.580732 0.109733 0.806665
v -1.479942 4.938013 -0.251103 0.752941 0.752941 0.752941
vn 0.585895 0.283472 0.759191
v -1.485491 4.772474 -0.205521 0.752941 0.752941 0.752941
vn 0.543209 0.452298 0.707355
v -1.445544 4.613578 -0.156605 0.752941 0.752941 0.752941
vn 0.455529 0.602647 0.655217
v -1.362824 4.472152 -0.107690 0.752941 0.752941 0.752941
vn 0.330301 0.722862 0.606936
v -1.242968 4.357835 -0.062108 0.752941 0.752941 0.752941
vn 0.178125 0.804855 0.566110
v -1.094144 4.278417 -0.022966 0.752941 0.752941 0.752941
vn 0.010759 0.844542 0.535381
v -0.926493 4.239311 0.007069 0.752941 0.752941 0.752941
vn -0.160454 0.841184 0.516395
v -0.751442 4.243181 0.025950 0.752941 0.752941 0.752941
vn -0.325257 0.796319 0.509984
v -0.580919 4.289764 0.032390 0.752941 0.752941 0.752941
vn -0.474342 0.712977 0.516394
v -0.426546 4.375885 0.025950 0.752941 0.752941 0.752941
vn -0.598947 0.595508 0.535381
v -0.298842 4.495675 0.007069 0.752941 0.752941 0.752941
vn -0.690669 0.449995 0.566110
v -0.206510 4.640971 -0.022966 0.752941 0.752941 0.752941
vn -0.741926 0.284911 0.606936
v -0.155844 4.801871 -0.062108 0.752941 0.752941 0.752941
vn -0.747181 0.111401 0.655217
v -0.150295 4.967410 -0.107690 0.752941 0.752941 0.752941
vn 0.608285 0.459318 0.647314
v 0.669361 5.477410 -0.156605 0.752941 0.752941 0.752941
vn 0.504652 0.632511 0.587586
v 0.482392 5.790391 -0.265302 0.752941 0.752941 0.752941
vn 0.357863 0.765391 0.534893
v 0.206811 6.040646 -0.366592 0.752941 0.752941 0.752941
vn 0.186156 0.849767 0.493196
v -0.138601 6.211118 -0.453572 0.752941 0.752941 0.752941
vn 0.005883 0.885884 0.463870
v -0.530307 6.290192 -0.520314 0.752941 0.752941 0.752941
vn -0.171629 0.878066 0.446702
v -0.941610 6.272478 -0.562269 0.752941 0.752941 0.752941
vn -0.339356 0.830838 0.441073
v -1.344483 6.159183 -0.576580 0.752941 0.752941 0.752941
vn -0.492184 0.747136 0.446703
v -1.711469 5.958029 -0.562269 0.752941 0.752941 0.752941
vn -0.624409 0.628442 0.463869
v -2.017560 5.682724 -0.520314 0.752941 0.752941 0.752941
vn -0.727846 0.476442 0.493196
v -2.241895 5.352028 -0.453572 0.752941 0.752941 0.752941
vn -0.791381 0.295983 0.534893
v -2.369187 4.988480 -0.366592 0.752941 0.752941 0.752941
vn -0.803165 0.098333 0.587585
v -2.390760 4.616853 -0.265303 0.752941 0.752941 0.752941
vn -0.755912 -0.097886 0.647315
v -2.305146 4.262474 -0.156605 0.752941 0.752941 0.752941
vn -0.652370 -0.270855 0.707849
v -2.118177 3.949492 -0.047908 0.752941 0.752941 0.752941
vn -0.505821 -0.403150 0.762637
v -1.842597 3.699238 0.053382 0.752941 0.752941 0.752941
vn -0.334414 -0.486788 0.806973
v -1.497184 3.528766 0.140362 0.752941 0.752941 0.752941
vn -0.154415 -0.522234 0.838706
v -1.105479 3.449692 0.207103 0.752941 0.752941 0.752941
vn 0.022910 -0.513960 0.857508
v -0.694175 3.467406 0.249059 0.752941 0.752941 0.752941
vn 0.190572 -0.466572 0.863709
v -0.291302 3.580701 0.263369 0.752941 0.752941 0.752941
vn 0.343465 -0.383030 0.857508
v 0.075684 3.781855 0.249059 0.752941 0.752941 0.752941
vn 0.475876 -0.264793 0.838706
v 0.381775 4.057160 0.207103 0.752941 0.752941 0.752941
vn 0.579588 -0.113465 0.806972
v 0.606110 4.387855 0.140362 0.752941 0.752941 0.752941
vn 0.643424 0.066259 0.762637
v 0.733402 4.751404 0.053382 0.752941 0.752941 0.752941
vn 0.655446 0.263323 0.707850
v 0.754975 5.123031 -0.047908 0.752941 0.752941 0.752941
vn 0.755911 0.097887 -0.647315
v 0.758843 5.258332 -0.941332 0.752941 0.752941 0.752941
vn 0.652370 0.270855 -0.707849
v 0.571875 5.571313 -1.050029 0.752941 0.752941 0.752941
vn 0.505821 0.403149 -0.762637
v 0.296294 5.821567 -1.151319 0.752941 0.752941 0.752941
vn 0.334416 0.486788 -0.806972
v -0.049119 5.992040 -1.238299 0.752941 0.752941 0.752941
vn 0.154415 0.522233 -0.838706
v -0.440824 6.071114 -1.305041 0.752941 0.752941 0.752941
vn -0.022911 0.513961 -0.857508
v -0.852128 6.053400 -1.346996 0.752941 0.752941 0.752941
vn -0.190571 0.466572 -0.863709
v -1.255001 5.940105 -1.361306 0.752941 0.752941 0.752941
vn -0.343466 0.383030 -0.857507
v -1.621987 5.738951 -1.346996 0.752941 0.752941 0.752941
vn -0.475874 0.264791 -0.838707
v -1.928077 5.463645 -1.305041 0.752941 0.752941 0.752941
vn -0.579588 0.113464 -0.806972
v -2.152413 5.132950 -1.238299 0.752941 0.752941 0.752941
vn -0.643424 -0.066259 -0.762637
v -2.279705 4.769401 -1.151319 0.752941 0.752941 0.752941
vn -0.655447 -0.263324 -0.707849
v -2.301278 4.397775 -1.050029 0.752941 0.752941 0.752941
vn -0.608285 -0.459317 -0.647315
v -2.215663 4.043396 -0.941332 0.752941 0.752941 0.752941
vn -0.504652 -0.632511 -0.587585
v -2.028695 3.730414 -0.832635 0.752941 0.752941 0.752941
vn -0.357863 -0.765391 -0.534893
v -1.753114 3.480160 -0.731345 0.752941 0.752941 0.752941
vn -0.186156 -0.849767 -0.493196
v -1.407701 3.309687 -0.644365 0.752941 0.752941 0.752941
vn -0.005882 -0.885884 -0.463869
v -1.015996 3.230614 -0.577623 0.752941 0.752941 0.752941
vn 0.171628 -0.878066 -0.446702
v -0.604693 3.248328 -0.535668 0.752941 0.752941 0.752941
vn 0.339356 -0.830838 -0.441072
v -0.201820 3.361622 -0.521357 0.752941 0.752941 0.752941
vn 0.492184 -0.747136 -0.446702
v 0.165166 3.562777 -0.535668 0.752941 0.752941 0.752941
vn 0.624408 -0.628442 -0.463869
v 0.471257 3.838082 -0.577623 0.752941 0.752941 0.752941
vn 0.727846 -0.476443 -0.493196
v 0.695592 4.168777 -0.644365 0.752941 0.752941 0.752941
vn 0.791381 -0.295983 -0.534893
v 0.822884 4.532326 -0.731345 0.752941 0.752941 0.752941
vn 0.803165 -0.098333 -0.587585
v 0.844458 4.903953 -0.832635 0.752941 0.752941 0.752941
# 248 vertices, 0 vertices normals


usemtl material_0
vt 0.379384 0.684881
vt 0.373258 0.787730
vt 0.223720 0.686103
f 13/1/13 14/2/14 12/3/12
vt 0.219362 0.984272
f 12/3/12 14/2/14 11/4/11
vt 0.883309 0.973043
f 11/4/11 14/2/14 20/5/20
vt 0.418434 0.787926
f 14/2/14 15/6/15 20/5/20
vt 0.510382 0.743131
vt 0.504068 0.806111
vt 0.417346 0.741452
f 17/7/17 18/8/18 16/9/16
f 16/9/16 18/8/18 15/6/15
f 15/6/15 18/8/18 20/5/20
vt 0.880381 0.830997
f 18/8/18 19/10/19 20/5/20
f 6/7/6 8/9/8 5/8/5
f 8/9/8 9/6/9 5/8/5
f 7/1/7 2/3/2 10/2/10
f 2/3/2 1/4/1 10/2/10
f 1/4/1 3/5/3 10/2/10
f 10/2/10 3/5/3 9/6/9
f 9/6/9 3/5/3 5/8/5
f 3/5/3 4/10/4 5/8/5
vt 0.925541 0.598861
vt 0.925541 0.422669
vt 0.989045 0.598600
f 1/11/1 2/12/2 11/13/11
vt 0.989045 0.422669
f 11/13/11 2/12/2 12/14/12
vt 0.925541 0.337730
f 2/12/2 7/15/7 12/14/12
vt 0.989045 0.337730
f 12/14/12 7/15/7 13/16/13
vt 0.925541 0.279910
f 7/15/7 10/17/10 13/16/13
vt 0.989045 0.279910
f 13/16/13 10/17/10 14/18/14
vt 0.925541 0.255616
f 10/17/10 9/19/9 14/18/14
vt 0.989045 0.255617
f 14/18/14 9/19/9 15/20/15
vt 0.925541 0.231975
f 9/19/9 8/21/8 15/20/15
vt 0.989045 0.231975
f 15/20/15 8/21/8 16/22/16
vt 0.925541 0.191115
f 8/21/8 6/23/6 16/22/16
vt 0.989045 0.191115
f 16/22/16 6/23/6 17/24/17
vt 0.925541 0.163178
f 6/23/6 5/25/5 17/24/17
vt 0.989045 0.163178
f 17/24/17 5/25/5 18/26/18
vt 0.925541 0.008308
f 5/25/5 4/27/4 18/26/18
vt 0.989045 0.008554
f 18/26/18 4/27/4 19/28/19
vt 0.925541 0.987630
vt 0.989045 0.987620
f 3/29/3 1/11/1 20/30/20
f 20/30/20 1/11/1 11/13/11
f 137/1/137 138/2/138 136/3/136
f 136/3/136 138/2/138 135/4/135
f 135/4/135 138/2/138 144/5/144
f 138/2/138 139/6/139 144/5/144
f 141/7/141 142/8/142 140/9/140
f 140/9/140 142/8/142 139/6/139
f 139/6/139 142/8/142 144/5/144
f 142/8/142 143/10/143 144/5/144
f 130/7/130 132/9/132 129/8/129
f 132/9/132 133/6/133 129/8/129
f 131/1/131 126/3/126 134/2/134
f 126/3/126 125/4/125 134/2/134
f 125/4/125 127/5/127 134/2/134
f 134/2/134 127/5/127 133/6/133
f 133/6/133 127/5/127 129/8/129
f 127/5/127 128/10/128 129/8/129
f 125/11/125 126/12/126 135/13/135
f 135/13/135 126/12/126 136/14/136
f 126/12/126 131/15/131 136/14/136
f 136/14/136 131/15/131 137/16/137
f 131/15/131 134/17/134 137/16/137
f 137/16/137 134/17/134 138/18/138
f 134/17/134 133/19/133 138/18/138
f 138/18/138 133/19/133 139/20/139
f 133/19/133 132/21/132 139/20/139
f 139/20/139 132/21/132 140/22/140
f 132/21/132 130/23/130 140/22/140
f 140/22/140 130/23/130 141/24/141
f 130/23/130 129/25/129 141/24/141
f 141/24/141 129/25/129 142/26/142
f 129/25/129 128/27/128 142/26/142
f 142/26/142 128/27/128 143/28/143
f 127/29/127 125/11/125 144/30/144
f 144/30/144 125/11/125 135/13/135
# 68 faces, 30 coords texture

# End of File
